<svg width="16" height="16" viewBox="0 0 16 16" fill="none" xmlns="http://www.w3.org/2000/svg">
<path fill-rule="evenodd" clip-rule="evenodd" d="M16 8C16 9.27719 15.7007 10.4845 15.1684 11.5556H8.50001C9.73133 9.87918 11 7.84918 11 5.77778C11 3.11216 8.96923 0.868157 6.20788 0.201508C6.78403 0.0696496 7.38388 0 8.00001 0C12.4183 0 16 3.58172 16 8ZM8.99999 5.77778C8.99999 3.56864 6.98528 1.77778 4.5 1.77778C1.17467 1.77778 0 5.55871 0 8C0 12.4183 3.58172 16 7.99999 16C10.3693 16 12.4981 14.97 13.9629 13.3333H4.5C4.67591 13.134 4.86012 12.9285 5.04935 12.7174C6.80782 10.7561 8.99999 8.31099 8.99999 5.77778Z" fill="#7859CF"/>
</svg>
